<svg xmlns="http://www.w3.org/2000/svg"><style>:root svg:not(:target){display:none}</style><svg fill="none" id="button-slider-left" viewBox="0 0 11 20"><path fill="#7859CF" fill-rule="evenodd" d="M9.72 0 11 1.32 2.57 10 11 18.68 9.72 20 0 10 9.72 0Z" clip-rule="evenodd"></path></svg><svg fill="none" id="button-slider-right" viewBox="0 0 11 20"><path fill="#7859CF" fill-rule="evenodd" d="M1.28 0 0 1.32 8.43 10 0 18.68 1.28 20 11 10 1.28 0Z" clip-rule="evenodd"></path></svg><svg fill="none" id="convenience" viewBox="0 0 52 56"><path fill="#F0EBFF" d="M4 4h48l-4 44-20 8-20-8L4 4Z"></path><path fill="#7859CF" fill-rule="evenodd" d="M1 0H0l.1 1L4 44l20 8 20-8 3.9-43 .1-1H1Zm.1 1 .36 4h45.08l.37-4H1.1Zm40.8 5H6.1l.1 1.13-.5.05-.5.04L5.09 6H1.55l3.39 37.3L24 50.92l19.06-7.62L46.45 6h-3.54l-.1 1.22-.5-.04-.5-.05.1-1.13ZM6.1 11.62l-.5.04.39 4.45.5-.05.5-.04-.4-4.45-.5.05Zm.78 8.88-.5.05.4 4.44.5-.04.5-.05-.4-4.44-.5.04Zm.8 8.89-.5.04.4 4.45.5-.05.49-.04-.4-4.45-.5.05Zm.79 8.88-.5.05.2 2.22 1.98.8.18-.46.2-.46-1.42-.58-.15-1.61-.5.04Zm5.82 4.23-.19.46 3.96 1.62.2-.47.18-.46-3.96-1.61-.19.46Zm7.92 3.23-.19.46L24 47l1.98-.8-.19-.47-.19-.46-1.6.65-1.6-.65-.19.46Zm7.54-1.62.19.47 3.96-1.62-.2-.46-.18-.46-3.96 1.61.19.46Zm7.92-3.23.18.47 1.98-.81.2-2.22-.5-.05-.5-.04-.14 1.61-1.41.58.19.46Zm2.26-7.05.5.05.4-4.45-.5-.04-.5-.05-.4 4.45.5.04Zm.8-8.88.49.04.4-4.44-.5-.05-.5-.04-.4 4.44.5.05Zm.78-8.89.5.05.4-4.45-.5-.04-.5-.05-.4 4.45.5.04Z" clip-rule="evenodd"></path></svg><svg fill="none" id="cross" viewBox="0 0 12 12"><path fill="#333" fill-rule="evenodd" d="M5.03 6 0 .97.97 0 6 5.03 11.03 0l.97.97L6.97 6 12 11.03l-.97.97L6 6.97.97 12 0 11.03 5.03 6Z" clip-rule="evenodd"></path></svg><svg fill="none" id="developer" viewBox="0 0 12 16"><path fill="#BDBDBD" d="M11.22 5.75 5.97 2.5.78 5.75V1.41L6 .83l5.22.58v4.34Zm0 .58-2.1 1.3-3.14-1.97v.57L8.66 7.9l-.46.29-2.22-1.4v.58l1.75 1.1-.41.29H7.3l-1.33-.82v.58l.87.53-.89.56L.8 6.4l5.17-3.3 5.24 3.22Zm0 5.44L6 15.04.78 11.77V7.03l5.2 3.25v.59L2.43 8.64v.57L6 11.47v.6L2.43 9.85v.57L6 12.67l3.6-2.27V7.96l1.62-1.01v4.82ZM6 0 0 .66v11.58L6 16l6-3.76V.66L6 0Z"></path></svg><svg fill="none" id="eco" viewBox="0 0 52 56"><path fill="#F0EBFF" fill-rule="evenodd" d="M41.7 22.12C42.49 15.56 43.2 9.35 49 4c-26.5 0-34.15 8.13-38 14-8.54 13.04-.91 25.67.71 28.09A808.64 808.64 0 0 0 7 55.56l.88.44a825.82 825.82 0 0 1 4.63-9.32c2.6.87 14.45 4.19 21.99-4.68 5.66-6.66 6.45-13.44 7.2-19.88Z" clip-rule="evenodd"></path><path fill="#7859CF" fill-rule="evenodd" d="M8.23 41.05C12.2 33.26 16.7 25.1 21.27 20l.73.66c-4.57 5.08-9.07 13.3-13.03 21.12A26.2 26.2 0 0 0 16.09 43c4.38.12 9.66-.96 13.65-5.65 5.46-6.42 6.22-12.94 6.98-19.4l.02-.13c.68-5.81 1.38-11.64 5.87-16.8-11.79.23-19.48 2.16-24.67 4.68a23.8 23.8 0 0 0-10.1 8.85A22.6 22.6 0 0 0 4.9 33.43a28.93 28.93 0 0 0 3.33 7.63Zm-.52 1.04C6.1 39.67-1.54 27.04 7 14 10.78 8.24 18.23.3 43.55 0H45a22 22 0 0 0-1.02 1c-4.87 5.12-5.55 10.96-6.27 17.12-.76 6.44-1.55 13.22-7.21 19.88-7.54 8.87-19.4 5.55-21.99 4.68L5.86 48c-.68 1.4-1.34 2.73-1.98 4L3 51.56l1.97-3.96 2.74-5.51Z" clip-rule="evenodd"></path></svg><svg fill="none" id="location" viewBox="0 0 13 16"><path fill="#7859CF" fill-rule="evenodd" d="M11.8 6.5c0 2.33-1.37 4.42-2.91 6.01a17.54 17.54 0 0 1-2.39 2.05 16.93 16.93 0 0 1-2.39-2.05C2.57 10.91 1.2 8.83 1.2 6.5a5.3 5.3 0 1 1 10.6 0Zm1.2 0c0 5.59-6.5 9.5-6.5 9.5S0 12.09 0 6.5a6.5 6.5 0 0 1 13 0Zm-4.2 0a2.3 2.3 0 1 1-4.6 0 2.3 2.3 0 0 1 4.6 0Zm1.2 0a3.5 3.5 0 1 1-7 0 3.5 3.5 0 0 1 7 0Z" clip-rule="evenodd"></path></svg><svg fill="none" id="logo-desktop" viewBox="0 0 170 36"><path d="M142.936 17.24h4.2v6.96c-.96.688-2.064 1.216-3.312 1.584a13.18 13.18 0 0 1-3.744.552c-1.76 0-3.344-.368-4.752-1.104-1.408-.752-2.512-1.792-3.312-3.12-.8-1.328-1.2-2.832-1.2-4.512 0-1.68.4-3.184 1.2-4.512.8-1.328 1.912-2.36 3.336-3.096 1.424-.752 3.032-1.128 4.824-1.128 1.568 0 2.976.264 4.224.792 1.248.528 2.288 1.288 3.12 2.28l-3.024 2.736c-1.136-1.248-2.496-1.872-4.08-1.872-1.44 0-2.6.44-3.48 1.32-.88.864-1.32 2.024-1.32 3.48 0 .928.2 1.76.6 2.496.4.72.96 1.288 1.68 1.704.72.4 1.544.6 2.472.6.912 0 1.768-.184 2.568-.552V17.24Zm16.165 9.096c-1.776 0-3.376-.376-4.8-1.128-1.408-.752-2.52-1.792-3.336-3.12-.8-1.328-1.2-2.824-1.2-4.488 0-1.664.4-3.16 1.2-4.488.816-1.328 1.928-2.368 3.336-3.12 1.424-.752 3.024-1.128 4.8-1.128 1.776 0 3.368.376 4.776 1.128 1.424.752 2.536 1.792 3.336 3.12.816 1.328 1.224 2.824 1.224 4.488 0 1.664-.408 3.16-1.224 4.488-.8 1.328-1.912 2.368-3.336 3.12-1.408.752-3 1.128-4.776 1.128Zm0-3.936c.848 0 1.616-.2 2.304-.6.688-.4 1.232-.96 1.632-1.68.4-.736.6-1.576.6-2.52s-.2-1.776-.6-2.496a4.295 4.295 0 0 0-1.632-1.704c-.688-.4-1.456-.6-2.304-.6-.848 0-1.616.2-2.304.6-.688.4-1.232.968-1.632 1.704-.4.72-.6 1.552-.6 2.496s.2 1.784.6 2.52c.4.72.944 1.28 1.632 1.68.688.4 1.456.6 2.304.6Z" fill="#333"></path><path fill-rule="evenodd" clip-rule="evenodd" d="M124 18c0 2.874-.599 5.59-1.663 8H109c2.463-3.772 5-8.34 5-13 0-5.998-4.062-11.047-9.584-12.547A14.348 14.348 0 0 1 108 0c8.837 0 16 8.059 16 18Zm-14-5a9 9 0 0 0-9-9c-6.65 0-9 8.507-9 14 0 9.941 7.163 18 16 18 4.739 0 8.996-2.318 11.926-6H101c.352-.449.72-.91 1.099-1.386C105.616 24.201 110 18.7 110 13Z" fill="#7859CF"></path><path d="M2.65 9.2h7.945c1.84 0 3.472.344 4.896 1.032 1.424.688 2.528 1.664 3.312 2.928.784 1.264 1.176 2.744 1.176 4.44 0 1.696-.392 3.176-1.176 4.44-.784 1.264-1.888 2.24-3.312 2.928-1.424.688-3.056 1.032-4.896 1.032H2.65V9.2Zm7.753 13.008c1.44 0 2.592-.408 3.456-1.224.88-.816 1.32-1.944 1.32-3.384s-.44-2.568-1.32-3.384c-.864-.816-2.016-1.224-3.456-1.224h-3v9.216h3Zm19.9-.672H27.71V26h-4.752V9.2h7.68c1.52 0 2.84.256 3.96.768 1.12.496 1.984 1.216 2.592 2.16.608.928.912 2.024.912 3.288 0 1.216-.288 2.28-.864 3.192-.56.896-1.368 1.6-2.424 2.112L38.439 26H33.35l-3.048-4.464Zm3-6.12c0-.784-.248-1.392-.744-1.824-.496-.432-1.232-.648-2.208-.648h-2.64v4.92h2.64c.976 0 1.712-.208 2.208-.624.496-.432.744-1.04.744-1.824ZM41.204 9.2h4.752V26h-4.752V9.2Zm24.597 0V26H61.89l-7.416-8.952V26h-4.656V9.2h3.912l7.416 8.952V9.2h4.656Zm10.312 10.704L74.337 21.8V26h-4.704V9.2h4.704v6.984L80.841 9.2h5.232l-6.864 7.44L86.433 26h-5.52l-4.8-6.096Z" fill="#333"></path></svg><svg fill="none" id="logo-mobile" viewBox="0 0 32 36"><path fill-rule="evenodd" clip-rule="evenodd" d="M32 18c0 2.874-.599 5.59-1.663 8H17c2.463-3.772 5-8.34 5-13C22 7.002 17.939 1.953 12.416.453A14.35 14.35 0 0 1 16 0c8.837 0 16 8.059 16 18Zm-14-5a9 9 0 0 0-9-9c-6.65 0-9 8.507-9 14 0 9.941 7.163 18 16 18 4.739 0 8.996-2.318 11.926-6H9c.352-.449.72-.91 1.099-1.386C13.616 24.201 18 18.7 18 13Z" fill="#7859CF"></path></svg><svg fill="none" id="logo-tablet" viewBox="0 0 82 36"><path d="M76.936 17.24h4.2v6.96c-.96.688-2.064 1.216-3.312 1.584a13.18 13.18 0 0 1-3.744.552c-1.76 0-3.344-.368-4.752-1.104-1.408-.752-2.512-1.792-3.312-3.12-.8-1.328-1.2-2.832-1.2-4.512 0-1.68.4-3.184 1.2-4.512.8-1.328 1.912-2.36 3.336-3.096 1.424-.752 3.032-1.128 4.824-1.128 1.568 0 2.976.264 4.224.792 1.248.528 2.288 1.288 3.12 2.28l-3.024 2.736C77.36 13.424 76 12.8 74.416 12.8c-1.44 0-2.6.44-3.48 1.32-.88.864-1.32 2.024-1.32 3.48 0 .928.2 1.76.6 2.496.4.72.96 1.288 1.68 1.704.72.4 1.544.6 2.472.6.912 0 1.768-.184 2.568-.552V17.24Z" fill="#333"></path><path fill-rule="evenodd" clip-rule="evenodd" d="M58 18c0 2.874-.599 5.59-1.663 8H43c2.463-3.772 5-8.34 5-13C48 7.002 43.938 1.953 38.416.453A14.35 14.35 0 0 1 42 0c8.837 0 16 8.059 16 18Zm-14-5a9 9 0 0 0-9-9c-6.65 0-9 8.507-9 14 0 9.941 7.163 18 16 18 4.739 0 8.996-2.318 11.926-6H35c.352-.449.72-.91 1.099-1.386C39.616 24.201 44 18.7 44 13Z" fill="#7859CF"></path><path d="M1.852 9.2h7.944c1.84 0 3.472.344 4.896 1.032 1.424.688 2.528 1.664 3.312 2.928.784 1.264 1.176 2.744 1.176 4.44 0 1.696-.392 3.176-1.176 4.44-.784 1.264-1.888 2.24-3.312 2.928C13.268 25.656 11.636 26 9.796 26H1.852V9.2Zm7.752 13.008c1.44 0 2.592-.408 3.456-1.224.88-.816 1.32-1.944 1.32-3.384s-.44-2.568-1.32-3.384c-.864-.816-2.016-1.224-3.456-1.224h-3v9.216h3Z" fill="#333"></path></svg><svg fill="none" id="menu" viewBox="0 0 16 12"><path fill="#333" fill-rule="evenodd" d="M0 0h16v1.5H0V0Zm0 5.25h16v1.5H0v-1.5Zm16 5.25H0V12h16v-1.5Z" clip-rule="evenodd"></path></svg><svg fill="none" id="ok" viewBox="0 0 20 20"><path fill="#BDBDBD" fill-rule="evenodd" d="M1.4 1.4C0 2.81 0 5.07 0 9.6v.91c0 4.46 0 6.7 1.4 8.09C2.81 20 5.07 20 9.6 20h.91c4.46 0 6.7 0 8.09-1.4 1.4-1.41 1.4-3.67 1.4-8.2v-.91c0-4.46 0-6.7-1.4-8.09C17.19 0 14.93 0 10.4 0h-.91C5.03 0 2.79 0 1.4 1.4Zm8.62 8.8A3.03 3.03 0 1 0 10 4.13a3.03 3.03 0 0 0 0 6.07Zm0-4.28a1.25 1.25 0 0 1 0 2.5c-.69 0-1.25-.56-1.25-1.25a1.23 1.23 0 0 1 1.25-1.25Zm1.21 6.76a5.73 5.73 0 0 0 1.76-.72.88.88 0 0 0 .28-1.24.88.88 0 0 0-1.24-.27 3.85 3.85 0 0 1-4.08 0 .9.9 0 0 0-1.23.27.9.9 0 0 0 .3 1.22c.55.34 1.15.58 1.77.72L7.1 14.35a.89.89 0 0 0 0 1.25c.18.18.4.25.63.25.24 0 .46-.09.64-.25l1.67-1.67 1.67 1.67a.89.89 0 0 0 1.25-1.25l-1.73-1.67Z" clip-rule="evenodd"></path></svg><svg fill="none" id="pagination-left" viewBox="0 0 6 10"><path fill="#7859CF" fill-rule="evenodd" d="M4.8 0 6 1.24 2.38 5 6 8.76 4.8 10 0 5l4.8-5Z" clip-rule="evenodd"></path></svg><svg fill="none" id="pagination-right" viewBox="0 0 6 10"><path fill="#7859CF" fill-rule="evenodd" d="M1.2 0 0 1.24 3.62 5 0 8.76 1.2 10 6 5 1.2 0Z" clip-rule="evenodd"></path></svg><svg fill="none" id="pinterest" viewBox="0 0 22 22"><path fill="#BDBDBD" d="M11 0a11 11 0 0 0-4 21.25c-.1-.87-.2-2.21.03-3.16l1.29-5.47s-.33-.66-.33-1.63c0-1.53.89-2.67 2-2.67.93 0 1.38.7 1.38 1.54 0 .95-.6 2.36-.9 3.67-.27 1.1.54 1.99 1.62 1.99 1.96 0 3.46-2.07 3.46-5.04 0-2.64-1.9-4.48-4.6-4.48A4.76 4.76 0 0 0 6 10.78c0 .94.36 1.96.82 2.5.09.12.1.21.07.32l-.3 1.25c-.05.2-.16.24-.37.15-1.38-.64-2.23-2.65-2.23-4.26 0-3.47 2.52-6.66 7.26-6.66 3.82 0 6.78 2.72 6.78 6.35 0 3.8-2.39 6.84-5.7 6.84-1.12 0-2.17-.58-2.52-1.26l-.69 2.62a12.3 12.3 0 0 1-1.37 2.88A11 11 0 1 0 11 0Z"></path></svg><svg fill="none" id="placemark" viewBox="0 0 38 50"><ellipse cx="19" cy="48.5" fill="#7859CF" fill-opacity=".25" rx="8" ry="1.5"></ellipse><path fill="#7859CF" d="M38 20c0 15.05-19 24-19 24S0 35.05 0 20C0 8.95 8.5 0 19 0s19 8.95 19 20Z"></path><path fill="#fff" fill-rule="evenodd" d="M19 36c8.28 0 15-7.16 15-16S27.28 4 19 4C10.72 4 4 11.16 4 20s6.72 16 15 16Zm9.86-10.67C29.59 23.73 30 21.92 30 20c0-6.63-4.92-12-11-12-.85 0-1.67.1-2.46.3 3.8 1 6.59 4.37 6.59 8.37 0 3.1-1.75 6.15-3.44 8.66h9.17ZM14.19 10.67a6.1 6.1 0 0 1 6.19 6c0 3.8-3.02 7.46-5.44 10.4l-.75.93h13A10.6 10.6 0 0 1 19 32c-6.08 0-11-5.37-11-12 0-3.66 1.62-9.33 6.19-9.33Z" clip-rule="evenodd"></path></svg><svg fill="none" id="speed" viewBox="0 0 52 56"><path fill="#F0EBFF" fill-rule="evenodd" d="M24 4h8v3h-3v3.02c3.82.16 7.39 1.26 10.5 3.06 1.85-1.93 6.26.17 4.76 3.66l-.1-.1a23 23 0 1 1-32.43.1c-2.02-3.03 2.59-6.16 4.77-3.66 3.11-1.8 6.68-2.9 10.5-3.06V7h-3V4Z" clip-rule="evenodd"></path><path fill="#7859CF" fill-rule="evenodd" d="M27 1h-6v1h6V1Zm-2 2h3V0h-8v3h3v3.02a22.87 22.87 0 0 0-9.6 2.57l-.15-.17c-1.53-1.76-3.85-1.44-5.3-.4a4.14 4.14 0 0 0-1.6 2.26c-.26.96-.1 2.02.56 3.01l.12.19a23 23 0 1 0 33.99.05l.16-.4c.47-1.08.5-2.13.17-3.04-.32-.9-.95-1.6-1.68-2.06-1.41-.89-3.54-1.06-4.9.36l-.17.2A22.87 22.87 0 0 0 25 6.01V3Zm-1 4c-3.86 0-7.49 1-10.64 2.74l-.36.2a22 22 0 1 0 22 0l-.36-.2A21.9 21.9 0 0 0 24 7ZM12.5 9.08a23.08 23.08 0 0 0-4.76 3.66 2.98 2.98 0 0 1-.44-.98c-.55-2.31 2.31-4.31 4.35-3.34.3.15.6.37.85.66Zm23 0a23.08 23.08 0 0 1 4.76 3.66c.17-.4.26-.77.3-1.12.2-2.33-2.32-3.74-4.1-3.14-.36.12-.69.32-.96.6ZM24 31a2 2 0 0 0 .86-3.8l-.91-.2a2 2 0 0 0 .05 4Zm-.64-4.93-1.34-4.94-.04-.14.05-.15 1.5-4.5.47-1.42.47 1.42 1.5 4.5.05.15-.04.14-1.34 4.94.37.1 7.55-13.42.88.5-7.55 13.42a3 3 0 1 1-2.53-.6ZM23.02 21l.98 3.6.98-3.59-.98-2.93-.98 2.93Z" clip-rule="evenodd"></path></svg><svg fill="none" id="telefon" viewBox="0 0 13 16"><path fill="#7859CF" fill-rule="evenodd" d="M1.48 1.49A2.7 2.7 0 0 0 .05 4.32L.4 6.09c.93 3.13 2.5 5.77 4.83 8.11l1.4 1.2c.86.72 2.17.8 3.24.2l2.23-1.25c.88-.49 1.17-1.53.63-2.26L10.8 9.5c-.52-.7-1.6-.82-2.37-.26l-1.38.99a5.23 5.23 0 0 1-2.17-3.67l1.56-.66c.9-.37 1.33-1.33.96-2.11L6.04.85C5.66.03 4.58-.25 3.7.25L1.48 1.48Zm-.2 2.53c-.12-.6.2-1.22.78-1.55L4.3 1.23c.22-.13.5-.06.59.15L6.24 4.3c.1.2-.02.43-.24.53L3.57 5.86l.02.42a6.28 6.28 0 0 0 3.07 5.16l.36.22 2.13-1.53c.2-.14.46-.11.59.06l1.93 2.61c.14.19.07.45-.15.57l-2.23 1.25c-.59.33-1.3.28-1.77-.12l-1.4-1.19A20.91 20.91 0 0 1 1.64 5.8l-.36-1.77Z" clip-rule="evenodd"></path></svg><svg fill="none" id="union-button" viewBox="0 0 20 16"><path fill="#fff" fill-rule="evenodd" d="M13.67 13.52v-.02h1.35l-.03.21A2.67 2.67 0 0 1 12.35 16h-8.7A2.67 2.67 0 0 1 1 13.71L.19 8 0 6.67h4.55l-.22-2.68A3.68 3.68 0 0 1 11.62 3h-1.37a2.35 2.35 0 0 0-4.59.88l.23 2.79H9.5V8H6.06l.22 2.67h3.44l.01-.17h1.34l-.01.17h1.44V12h-1.55l-.23 2.67h1.63c.67 0 1.23-.5 1.32-1.15ZM4.72 8H1.54l.38 2.67h3.02L4.72 8Zm1.9 6.67L6.38 12H9.6l-.22 2.67H6.6ZM5.04 12l.23 2.67H3.65c-.67 0-1.23-.5-1.32-1.15L2.1 12h2.94Zm10.75-2V7.2H13V5.8h2.8V3h1.4v2.8H20v1.4h-2.8V10h-1.4Z" clip-rule="evenodd"></path></svg><svg fill="none" id="union" viewBox="0 0 16 16"><path fill="#333" fill-rule="evenodd" d="m5.66 3.88.23 2.79h4.22l.23-2.8a2.35 2.35 0 1 0-4.68 0Zm5.78 2.79.23-2.68a3.68 3.68 0 1 0-7.34 0l.23 2.68H0L.19 8l.82 5.71A2.67 2.67 0 0 0 3.65 16h8.7c1.33 0 2.46-.98 2.64-2.29L15.81 8 16 6.67h-4.55ZM11.34 8h-.06l-.22 2.67h3.02L14.46 8h-3.13Zm-1.4 0H6.06l.22 2.67h3.44L9.94 8ZM4.72 8H1.54l.38 2.67h3.02L4.72 8Zm1.9 6.67L6.38 12H9.6l-.22 2.67H6.6ZM10.94 12l-.23 2.67h1.63c.67 0 1.23-.5 1.32-1.15L13.9 12h-2.94Zm-5.9 0 .23 2.67H3.65c-.67 0-1.23-.5-1.32-1.15L2.1 12h2.94Z" clip-rule="evenodd"></path></svg><svg fill="none" id="user" viewBox="0 0 16 16"><path fill="#333" fill-rule="evenodd" d="M10.67 4a2.67 2.67 0 1 1-5.34 0 2.67 2.67 0 0 1 5.34 0ZM12 4a4 4 0 1 1-8 0 4 4 0 0 1 8 0Zm-8.8 8.31A7.55 7.55 0 0 1 8 10.67c1.84 0 3.56.6 4.8 1.64A4.83 4.83 0 0 1 14.67 16H16c0-1.77-.84-3.46-2.34-4.71A8.88 8.88 0 0 0 8 9.33c-2.12 0-4.16.7-5.66 1.96A6.16 6.16 0 0 0 0 16h1.33c0-1.33.63-2.66 1.87-3.69Z" clip-rule="evenodd"></path></svg><svg fill="none" id="vigor" viewBox="0 0 52 56"><path fill="#F0EBFF" fill-rule="evenodd" d="M24.97 35.2 43.13 4 9 30.68l15.97 4.52Zm6.06-10.4L12.87 56 47 29.32 31.03 24.8Z" clip-rule="evenodd"></path><path fill="#7859CF" fill-rule="evenodd" d="M39.13 0 5 26.68l15.97 4.52L8.87 52 43 25.32 27.03 20.8 39.13 0Zm1.7 25.75-15.32-4.34L35.66 4 7.16 26.25l15.33 4.34L12.34 48l28.5-22.26Z" clip-rule="evenodd"></path></svg><svg fill="none" id="vk" viewBox="0 0 20 20"><path fill="#BDBDBD" fill-rule="evenodd" d="M1.4 1.4C0 2.82 0 5.08 0 9.6v.8c0 4.53 0 6.79 1.4 8.2C2.82 20 5.08 20 9.6 20h.8c4.53 0 6.79 0 8.2-1.4 1.4-1.41 1.4-3.67 1.4-8.2v-.8c0-4.53 0-6.79-1.4-8.2C17.18 0 14.92 0 10.4 0h-.8C5.07 0 2.81 0 1.4 1.4Zm1.98 4.68c.1 5.2 2.7 8.33 7.26 8.33h.26v-2.98a4.11 4.11 0 0 1 3.45 2.98h2.37a6.58 6.58 0 0 0-3.43-4.18 6.35 6.35 0 0 0 2.93-4.15h-2.15c-.47 1.65-1.85 3.15-3.17 3.3v-3.3H8.75v5.77c-1.33-.33-3.02-1.95-3.1-5.77H3.39Z" clip-rule="evenodd"></path></svg></svg>