<svg xmlns="http://www.w3.org/2000/svg" width="20" height="20" fill="none"><path fill="#BDBDBD" fill-rule="evenodd" d="M1.4 1.4C0 2.81 0 5.07 0 9.6v.91c0 4.46 0 6.7 1.4 8.09C2.81 20 5.07 20 9.6 20h.91c4.46 0 6.7 0 8.09-1.4 1.4-1.41 1.4-3.67 1.4-8.2v-.91c0-4.46 0-6.7-1.4-8.09C17.19 0 14.93 0 10.4 0h-.91C5.03 0 2.79 0 1.4 1.4Zm8.62 8.8A3.03 3.03 0 1 0 10 4.13a3.03 3.03 0 0 0 0 6.07Zm0-4.28a1.25 1.25 0 0 1 0 2.5c-.69 0-1.25-.56-1.25-1.25a1.23 1.23 0 0 1 1.25-1.25Zm1.21 6.76a5.73 5.73 0 0 0 1.76-.72.88.88 0 0 0 .28-1.24.88.88 0 0 0-1.24-.27 3.85 3.85 0 0 1-4.08 0 .9.9 0 0 0-1.23.27.9.9 0 0 0 .3 1.22c.55.34 1.15.58 1.77.72L7.1 14.35a.89.89 0 0 0 0 1.25c.18.18.4.25.63.25.24 0 .46-.09.64-.25l1.67-1.67 1.67 1.67a.89.89 0 0 0 1.25-1.25l-1.73-1.67Z" clip-rule="evenodd"/></svg>